<svg xmlns="http://www.w3.org/2000/svg" version="1.1" xmlns:xlink="http://www.w3.org/1999/xlink" xmlns:svgjs="http://svgjs.dev/svgjs" width="1440" height="560" preserveAspectRatio="none" viewBox="0 0 1440 560"><g mask="url(&quot;#SvgjsMask1013&quot;)" fill="none"><path d="M1512 560L0 560 L0 370.59Q46.38 296.97, 120 343.35Q152.13 255.49, 240 287.62Q314.84 242.46, 360 317.3Q410.67 247.97, 480 298.64Q567.41 266.06, 600 353.47Q601.27 282.75, 672 284.02Q732.95 272.97, 744 333.92Q789.62 259.54, 864 305.16Q943.67 264.83, 984 344.5Q1025.28 313.78, 1056 355.06Q1074.58 301.63, 1128 320.21Q1157.74 277.95, 1200 307.7Q1224.88 260.58, 1272 285.46Q1357.59 251.05, 1392 336.64Q1458.53 283.17, 1512 349.7z" fill="rgba(76, 175, 80, 1)"></path><path d="M1512 560L0 560 L0 426.6Q47.28 353.88, 120 401.17Q198.38 359.56, 240 437.94Q288 365.94, 360 413.93Q364.63 346.56, 432 351.2Q497.39 296.59, 552 361.98Q651.6 341.58, 672 441.17Q700.15 397.32, 744 425.47Q755.61 365.08, 816 376.68Q867.76 308.44, 936 360.21Q1038.29 342.5, 1056 444.79Q1094.68 363.48, 1176 402.16Q1218 372.17, 1248 414.17Q1290.94 385.11, 1320 428.05Q1339.13 375.18, 1392 394.31Q1473.94 356.25, 1512 438.2z" fill="rgba(44, 91, 46, 1)"></path><path d="M1488 560L0 560 L0 462.27Q47.09 437.36, 72 484.44Q118.38 458.82, 144 505.2Q161.08 450.28, 216 467.36Q246.36 425.72, 288 456.08Q330.2 378.28, 408 420.48Q497.75 390.24, 528 479.99Q596.33 428.31, 648 496.64Q689.05 417.69, 768 458.74Q790.78 409.52, 840 432.31Q883.03 403.35, 912 446.38Q984.29 398.67, 1032 470.96Q1062.91 429.88, 1104 460.79Q1186.71 423.5, 1224 506.21Q1231.66 441.88, 1296 449.54Q1361.82 395.36, 1416 461.18Q1473.61 446.79, 1488 504.4z" fill="rgba(54, 158, 59, 1)"></path><path d="M1512 560L0 560 L0 551.41Q44.64 476.05, 120 520.69Q142.62 471.31, 192 493.92Q253.39 483.31, 264 544.69Q313.73 522.42, 336 572.16Q361.7 477.86, 456 503.56Q498.82 474.38, 528 517.2Q598.19 515.39, 600 585.58Q636.92 502.5, 720 539.43Q789.04 488.47, 840 557.51Q880.62 478.13, 960 518.74Q1006.53 493.27, 1032 539.81Q1085.34 521.15, 1104 574.49Q1134.97 533.46, 1176 564.43Q1223.73 540.16, 1248 587.89Q1269.24 489.13, 1368 510.37Q1412.68 483.06, 1440 527.74Q1493.45 509.19, 1512 562.65z" fill="white"></path></g><defs><mask id="SvgjsMask1013"><rect width="1440" height="560" fill="#ffffff"></rect></mask></defs></svg>